<?xml version="1.0" encoding="UTF-8" standalone="no"?>
<!-- Created with Inkscape (http://www.inkscape.org/) -->

<svg
   xmlns:dc="http://purl.org/dc/elements/1.1/"
   xmlns:cc="http://creativecommons.org/ns#"
   xmlns:rdf="http://www.w3.org/1999/02/22-rdf-syntax-ns#"
   xmlns:svg="http://www.w3.org/2000/svg"
   xmlns="http://www.w3.org/2000/svg"
   xmlns:sodipodi="http://sodipodi.sourceforge.net/DTD/sodipodi-0.dtd"
   xmlns:inkscape="http://www.inkscape.org/namespaces/inkscape"
   width="210mm"
   height="297mm"
   viewBox="0 0 210 297"
   version="1.1"
   id="svg3069"
   inkscape:version="0.92.4 (5da689c313, 2019-01-14)"
   sodipodi:docname="magnifying-glass.svg">
  <defs
     id="defs3063">
    <filter
       inkscape:collect="always"
       style="color-interpolation-filters:sRGB"
       id="filter3656"
       x="-0.061996956"
       width="1.1239939"
       y="-0.2694368"
       height="1.5388736">
      <feGaussianBlur
         inkscape:collect="always"
         stdDeviation="12.356203"
         id="feGaussianBlur3658" />
    </filter>
  </defs>
  <sodipodi:namedview
     id="base"
     pagecolor="#ffffff"
     bordercolor="#666666"
     borderopacity="1.0"
     inkscape:pageopacity="0.0"
     inkscape:pageshadow="2"
     inkscape:zoom="1.7928671"
     inkscape:cx="393.98846"
     inkscape:cy="560"
     inkscape:document-units="mm"
     inkscape:current-layer="layer1"
     showgrid="false"
     inkscape:window-width="1920"
     inkscape:window-height="1001"
     inkscape:window-x="-9"
     inkscape:window-y="-9"
     inkscape:window-maximized="1" />
  <metadata
     id="metadata3066">
    <rdf:RDF>
      <cc:Work
         rdf:about="">
        <dc:format>image/svg+xml</dc:format>
        <dc:type
           rdf:resource="http://purl.org/dc/dcmitype/StillImage" />
        <dc:title></dc:title>
      </cc:Work>
    </rdf:RDF>
  </metadata>
  <g
     inkscape:groupmode="layer"
     id="layer2"
     inkscape:label="Layer 2"
     style="display:inline" />
  <g
     inkscape:label="Layer 1"
     inkscape:groupmode="layer"
     id="layer1"
     style="display:inline">
    <text
       xml:space="preserve"
       style="font-style:normal;font-variant:normal;font-weight:normal;font-stretch:extra-condensed;font-size:41.67716599px;line-height:1.25;font-family:Algerian;-inkscape-font-specification:'Algerian, Extra-Condensed';font-variant-ligatures:normal;font-variant-caps:normal;font-variant-numeric:normal;font-feature-settings:normal;text-align:start;letter-spacing:0px;word-spacing:0px;writing-mode:lr-tb;text-anchor:start;fill:#000000;fill-opacity:1;stroke:none;stroke-width:1.04189622"
       x="3.8637705"
       y="169.28728"
       id="text3616-2"><tspan
         sodipodi:role="line"
         id="tspan3614-7"
         x="3.8637705"
         y="169.28728"
         style="font-style:normal;font-variant:normal;font-weight:normal;font-stretch:extra-condensed;font-size:41.67716599px;font-family:Algerian;-inkscape-font-specification:'Algerian, Extra-Condensed';font-variant-ligatures:normal;font-variant-caps:normal;font-variant-numeric:normal;font-feature-settings:normal;text-align:start;writing-mode:lr-tb;text-anchor:start;stroke-width:1.04189622">Cathal</tspan></text>
    <path
       style="font-style:normal;font-variant:normal;font-weight:normal;font-stretch:extra-condensed;font-size:41.67716599px;line-height:1.25;font-family:Algerian;-inkscape-font-specification:'Algerian, Extra-Condensed';font-variant-ligatures:normal;font-variant-caps:normal;font-variant-numeric:normal;font-feature-settings:normal;text-align:start;letter-spacing:0px;word-spacing:0px;writing-mode:lr-tb;text-anchor:start;fill:#000000;fill-opacity:1;stroke:none;stroke-width:3.93787551;filter:url(#filter3656)"
       d="m 57.558594,536.20508 c -12.101146,0 -22.227969,4.97237 -30.38086,14.91992 -8.15289,9.94755 -12.228515,22.27987 -12.228515,36.99609 0,15.94685 3.922344,28.61258 11.767578,37.9961 7.845234,9.33224 18.433854,13.99804 31.765625,13.99804 14.921328,0 24.766484,-5.64114 29.535156,-16.92187 2.256146,-5.33271 3.382813,-10.48521 3.382813,-15.45898 0,-3.33295 -0.998282,-5 -2.998047,-5 -1.538281,-10e-6 -2.41013,1.07687 -2.615235,3.23046 -0.820416,8.92203 -3.384218,15.79334 -7.691406,20.61328 -4.255911,4.76868 -9.973698,7.1543 -17.152344,7.1543 -8.973307,0 -15.99789,-4.12932 -21.074218,-12.38476 -5.025052,-8.25545 -7.53711,-19.66417 -7.53711,-34.22657 0,-16.92109 2.74198,-28.92 8.228516,-35.99609 4.358463,-5.69164 9.794583,-8.53711 16.306641,-8.53711 6.101848,0 11.306093,2.28214 15.613281,6.8457 4.307187,4.56357 7.05112,10.74315 8.230469,18.53711 l 0.998046,0.53711 0.69336,-1.76758 c 3.384218,-8.05033 7.383203,-16.102 11.998047,-24.15234 l 0.845703,-1.46094 -1.230469,-0.6914 c -2.153594,1.487 -4.58901,2.23047 -7.306641,2.23047 -2.512526,0 -5.691406,-0.74347 -9.537109,-2.23047 -7.332474,-2.82019 -13.870365,-4.23047 -19.613281,-4.23047 z m 84.298826,2.53711 8.15235,8.76953 -10.46094,28.76562 c -2.51253,-2.35869 -5.12807,-4.4358 -7.84571,-6.23046 l -1.23046,1.6914 0.69336,0.53906 c 1.74338,1.38446 3.89713,3.2048 6.46093,5.46094 l 0.92188,0.76953 -1.38477,3.38281 c -1.64083,-1.17934 -3.04916,-2.33286 -4.22851,-3.46093 l -3.46289,-3.23047 c -0.15383,-0.15383 -0.58878,-0.56388 -1.30664,-1.23047 -1.53829,4.56357 -3.71693,8.94771 -6.53711,13.15234 5.1276,0.51276 9.04994,1.92305 11.76757,4.23047 l -0.30859,1.07617 c -4.20463,13.38305 -8.46039,23.27995 -12.76758,29.68946 -4.25591,6.4095 -10.05034,11.51221 -17.38281,15.30664 h 38.45703 c -0.61531,-0.66659 -1.07516,-1.15328 -1.38281,-1.46094 -3.12784,-3.28167 -5.18005,-5.87232 -6.1543,-7.76953 -0.97424,-1.89721 -1.46094,-4.28089 -1.46094,-7.15234 0,-2.76891 0.69172,-6.25631 2.07618,-10.46094 l 2.53906,-7.8457 c 1.02552,-3.17912 1.87052,-5.58769 2.53711,-7.22852 l 3.38476,3.53711 c -4.25591,10.35776 -6.38476,18.15266 -6.38476,23.38281 0,3.07656 0.51354,5.76875 1.53906,8.07617 1.0768,2.25615 3.30719,5.43503 6.69141,9.53711 l 1.30859,1.61524 H 106.9375 l 1.53906,2.07617 h 41.53321 c -0.76914,-0.97425 -1.33248,-1.69281 -1.69141,-2.1543 -4.20464,-5.23015 -6.87193,-8.94747 -8,-11.15234 -1.0768,-2.25615 -1.61524,-4.99813 -1.61524,-8.22852 0,-5.48653 1.97362,-12.61461 5.92188,-21.38281 l 0.76953,0.92188 c 4.15336,5.43526 7.56412,10.28119 10.23047,14.5371 l 1.38281,2.23047 c 3.99953,-6.71716 9.0505,-12.61312 15.15235,-17.68945 l 1.46289,3.38477 -0.61524,0.76757 c -5.99929,6.2044 -10.51182,11.82065 -13.53711,16.84571 l 1.76758,0.46093 c 3.02529,-5.1276 7.35964,-10.53687 13,-16.22851 l 8.53711,22.45898 -10.61523,8.92188 h 38.84179 l -11.53711,-8.92188 -13.92187,-37.76562 c 2.25614,-1.53828 5.82018,-2.30664 10.69141,-2.30664 0.66658,0 1.74346,0.0498 3.23046,0.15234 -2.7689,-4.61484 -4.81916,-9.84398 -6.15234,-15.68945 -0.41021,0.51276 -1.38555,1.38461 -2.92383,2.61523 l -2.53711,2.1543 c -0.10255,0.10255 -0.46086,0.38422 -1.07617,0.8457 l -10.76953,-28.68945 7.76953,-9 -2,-0.8457 -8.15234,9.38476 11.38281,30.30274 -3.07617,1.69336 -12.61524,-33.53516 8,-9.07617 z m 76.75977,0 0.46093,0.76953 c 4.61485,8.7682 8.0256,16.71638 10.23047,23.84375 h 0.92188 c 0.30765,-6.40951 1.92297,-10.94693 4.8457,-13.61328 2.92274,-2.71763 7.69203,-4.07813 14.30664,-4.07813 2.3587,0 4.84586,0.15524 7.46094,0.46289 v 3.76758 h -0.8457 l -4.61524,-0.0762 c -5.84547,0 -10.05143,1.17841 -12.61523,3.53711 -2.51253,2.3587 -4.04925,6.53781 -4.61328,12.53711 h 2 c 0.41021,-5.23016 1.717,-8.87084 3.92187,-10.92188 2.25615,-2.10231 6.02521,-3.15234 11.30664,-3.15234 l 5.46094,0.0762 v 76.5293 l -10.76758,9 h 35.14844 l -9.07617,-8.38477 v -83.375 h 0.92383 c 2.30742,-0.2051 4.61445,-0.30664 6.92187,-0.30664 5.64037,0 9.81948,1.12862 12.53711,3.38477 2.76891,2.25614 4.89776,6.30687 6.38477,12.15234 l 0.23046,1 0.76954,0.53711 0.15234,-0.38476 c 1.53828,-4.9225 3.20534,-9.02303 5,-12.30469 l 5.23047,-9.23047 c 0.15383,-0.30766 0.46039,-0.89784 0.92187,-1.76953 z m 99.75781,0 10.30664,9.38476 v 34.61133 c -6.81971,1.33318 -11.74229,5.69047 -14.76758,13.07422 l 1.15235,0.76953 c 3.33294,-4.35846 7.87231,-6.53711 13.61523,-6.53711 v 2.8457 c -4.97378,0.41021 -8.94786,2.48732 -11.92187,6.23047 l 1.61523,0.76758 c 2.5638,-3.38422 5.99945,-5.07617 10.30664,-5.07617 v 33.61133 l -10.30664,9 h 35.5332 l -9.84375,-8.30664 V 590.9668 c 0.8717,0.0513 1.45993,0.10302 1.76758,0.15429 l 7.76953,0.69141 c 1.58956,0.15383 4.10162,0.23242 7.53711,0.23242 6.40951,0 12.0238,-0.36026 16.84375,-1.07812 v 2.76953 c -3.6406,1.33318 -7.92125,2 -12.84375,2 -3.02528,0 -7.92297,-0.25677 -14.6914,-0.76953 l -2.23047,-0.1543 v 35.38086 l 10.46093,11.46094 h -37.53515 l 2,2.07617 h 39.76562 l -12.6914,-14.61328 v -32.53516 l 1.07617,0.0762 c 4.61484,0.46149 9.07562,0.69336 13.38281,0.69336 4.56357,0 8.99945,-0.51354 13.30664,-1.53906 v 32.61133 l -10.53711,9 h 35.38086 l -9.30664,-8.30664 v -80.14453 l 10.61328,-10.23047 h -35.5332 l 9.38281,8.61523 v 35.38086 c -3.8457,0.51276 -8.43487,0.76758 -13.76758,0.76758 -3.69187,0 -7.51073,-0.17818 -11.45898,-0.53711 l -2.53906,-0.23047 v -32.07422 l 7.92187,-7.8457 -1.53711,-1.38281 -8.38476,8.30664 v 32.91797 c -1.58956,-0.10256 -2.973,-0.25584 -4.15235,-0.46094 v -33.22656 l 10.45899,-10.23047 z m 132.98438,0 8.15234,8.76953 -10.46094,28.76562 c -2.51252,-2.35869 -5.12612,-4.4358 -7.84375,-6.23046 l -1.23047,1.6914 0.69141,0.53906 c 1.74338,1.38446 3.89713,3.2048 6.46094,5.46094 l 0.92187,0.76953 -1.38281,3.38281 c -1.64083,-1.17934 -3.05112,-2.33286 -4.23047,-3.46093 l -3.46094,-3.23047 c -0.15383,-0.15383 -0.59073,-0.56388 -1.30859,-1.23047 -1.53828,4.56357 -3.71693,8.94771 -6.53711,13.15234 5.1276,0.51276 9.04995,1.92305 11.76758,4.23047 l -0.3086,1.07617 c -4.20463,13.38305 -8.46039,23.27995 -12.76757,29.68946 -4.25592,6.4095 -10.05034,11.51221 -17.38282,15.30664 h 38.45703 c -0.61531,-0.66659 -1.07515,-1.15328 -1.38281,-1.46094 -3.12784,-3.28167 -5.18005,-5.87232 -6.15429,-7.76953 -0.97425,-1.89721 -1.46094,-4.28089 -1.46094,-7.15234 0,-2.76891 0.69172,-6.25631 2.07617,-10.46094 l 2.53906,-7.8457 c 1.02552,-3.17912 1.87052,-5.58769 2.53711,-7.22852 l 3.38477,3.53711 c -4.25591,10.35776 -6.38282,18.15266 -6.38282,23.38281 0,3.07656 0.51159,5.76875 1.53711,8.07617 1.0768,2.25615 3.30719,5.43503 6.69141,9.53711 l 1.30859,1.61524 h -39.15039 l 1.53907,2.07617 h 41.5332 c -0.76914,-0.97425 -1.33248,-1.69281 -1.69141,-2.1543 -4.20463,-5.23015 -6.87192,-8.94747 -8,-11.15234 -1.07679,-2.25615 -1.61523,-4.99813 -1.61523,-8.22852 0,-5.48653 1.97362,-12.61461 5.92187,-21.38281 l 0.76953,0.92188 c 1.07957,1.41276 2.10488,2.78214 3.08399,4.11523 a 92.868008,92.868008 0 0 1 1.94726,-10.19727 c -2.30267,-2.91782 -4.90055,-5.86334 -7.79882,-8.83789 l 12.22851,-32.30468 2.1543,5.92187 -9.8457,25.99805 c 1.5515,1.4514 3.03427,2.96586 4.46093,4.53125 a 92.868008,92.868008 0 0 1 0.79102,-2.29102 l -1.79102,-2.00976 c -0.0513,-0.10256 -0.30804,-0.41107 -0.76953,-0.92383 l 8.46094,-22.30469 2.56641,6.89453 a 92.868008,92.868008 0 0 1 11.23828,-15.04883 l -2.80664,-7.45898 8,-9.07617 z m 39.91796,1.23047 -8.15234,9.38476 1.15234,3.06836 a 92.868008,92.868008 0 0 1 1.60743,-1.60156 l -0.37696,-1.00586 7.76953,-9 z m -85.14453,1.46289 -8.53711,8.45898 v 80.14453 l 10.30664,11.61524 h -37.45703 l 1.92188,2.07617 h 39.91992 l -12.76758,-14.61328 v -78.45313 l 7.84375,-7.61328 z m -91.60351,0.61523 -0.38477,0.46094 c -3.53805,4.15336 -7.20557,11.53625 -11,22.15039 l -0.23047,0.69336 1.69336,1.46094 0.30664,-0.76953 c 3.89698,-10.46032 7.6143,-17.9467 11.15235,-22.45899 z m -215.437503,1.69141 -0.767578,1.38476 -6.154297,10.92188 c -1.94849,3.53804 -4.203776,7.99883 -6.767578,13.38281 l -0.845703,1.92188 2.076171,1 c 3.332943,-7.84524 7.793725,-16.53688 13.382808,-26.07422 l 0.84571,-1.46094 z m -39.763672,3.15429 c -14.562396,0 -21.84375,13.25396 -21.84375,39.76368 0,12.35752 1.795443,22.58783 5.384766,30.68945 3.640599,8.05034 8.484583,12.6893 14.535156,13.91992 v -0.76758 c -5.589089,-2.25614 -9.921485,-7.20557 -12.998047,-14.8457 -3.076562,-7.69141 -4.615234,-17.30469 -4.615234,-28.8418 0,-25.33036 6.64138,-37.99609 19.921875,-37.99609 4.153359,0 8.562396,1.87208 13.228515,5.61523 v -1 c -4.153359,-4.35846 -8.690781,-6.53711 -13.613281,-6.53711 z m 220.820315,2.76758 -4.1543,0.0781 v 80.14453 l 10.30664,11.76758 h -36.8418 l 1.76954,2.07617 h 39.30273 l -12.22852,-14.46094 -0.30859,-77.29687 c 1.2819,-0.15383 2.51206,-0.23243 3.69141,-0.23243 5.28143,0 9.89744,1.28191 13.8457,3.84571 -1.12807,-2.3587 -2.74339,-3.92227 -4.8457,-4.69141 -2.05104,-0.82042 -5.56334,-1.23047 -10.53711,-1.23047 z m -125.29297,4.84571 2.15234,5.92187 -9.84375,25.99805 c 4.76867,4.46101 8.94779,9.46023 12.53711,14.99804 -0.41021,0.46149 -0.69187,0.7949 -0.8457,1 l -1.07813,1.30665 c -0.0513,0.10255 -0.30804,0.38617 -0.76953,0.84765 -0.46148,-0.61531 -0.7163,-0.94872 -0.76758,-1 l -3.53906,-4.92383 c -2.82018,-3.89698 -6.17919,-7.84422 -10.07617,-11.84375 z m 3.46094,8.92187 10.53711,28.30469 c -3.02529,2.71763 -5.64084,5.46156 -7.84571,8.23047 l -0.76953,-1.1543 c -2.61508,-3.89698 -4.76687,-6.7693 -6.45898,-8.61523 l -3.1543,-3.53711 c -0.0513,-0.10256 -0.30805,-0.41107 -0.76953,-0.92383 z m 39.38086,11.69141 c 1.12807,4.87122 3.33161,10.33224 6.61328,16.38281 l 0.92383,1.69141 c -3.38422,-0.46149 -6.46157,-0.69141 -9.23047,-0.69141 -2.25615,0 -4.25467,0.22992 -5.99805,0.69141 l 13.68945,36.22656 13.84571,12.23047 h -40.8418 l 1.46094,2.07617 h 44.5332 l -17.15234,-15.15235 -12.84375,-34.07226 c 0.82041,-0.0513 1.332,-0.0781 1.53711,-0.0781 1.2819,0 3.33411,0.12839 6.15429,0.38477 l 6.23047,0.53906 c 0.15383,0 0.7938,0.0766 1.92188,0.23047 -4.5123,-8.05034 -7.33287,-14.3832 -8.46094,-18.99805 z m -101.912114,31.15039 -0.154297,1.76953 c -0.51276,6.51206 -1.512994,11.7412 -3,15.68945 -1.487005,3.94826 -3.794036,7.51229 -6.921875,10.69141 -6.409505,6.51206 -14.691094,9.76758 -24.84375,9.76758 -9.280963,0 -17.202291,-2.15375 -23.765625,-6.46094 v 0.61523 c 7.38375,5.28144 15.356823,7.92188 23.919922,7.92188 11.280729,0 20.049011,-3.30727 26.304688,-9.92188 6.306953,-6.66588 9.870989,-16.3558 10.691406,-29.07226 z"
       transform="scale(0.26458333)"
       id="text3616"
       inkscape:connector-curvature="0" />
  </g>
</svg>
